<svg xmlns="http://www.w3.org/2000/svg" width="28" height="28" viewBox="0 0 28 28" fill="none">
  <defs>
    <radialGradient id="sparkleCore" cx="0.5" cy="0.45" r="0.6">
      <stop offset="0%" stop-color="#fff5ec"/>
      <stop offset="35%" stop-color="#f43f5e"/>
      <stop offset="100%" stop-color="#a64458"/>
    </radialGradient>
    <radialGradient id="orbitGlow" cx="0.5" cy="0.5" r="0.5">
      <stop offset="0%" stop-color="#f43f5e" stop-opacity="0.35"/>
      <stop offset="100%" stop-color="#f43f5e" stop-opacity="0"/>
    </radialGradient>
    <filter id="petalShadow" x="-30%" y="-30%" width="160%" height="160%">
      <feDropShadow dx="0.4" dy="1" stdDeviation="0.9" flood-color="#a64458" flood-opacity="0.45"/>
    </filter>
  </defs>
  <circle cx="14" cy="14" r="12" fill="url(#orbitGlow)"/>
  <path d="M14 2
           C14.6 7.2 16.4 10.4 19.8 11.4
           C22.6 12.2 24.6 12.8 26 14
           C24.6 15.2 22.6 15.8 19.8 16.6
           C16.4 17.6 14.6 20.8 14 26
           C13.4 20.8 11.6 17.6 8.2 16.6
           C5.4 15.8 3.4 15.2 2 14
           C3.4 12.8 5.4 12.2 8.2 11.4
           C11.6 10.4 13.4 7.2 14 2 Z"
        fill="url(#sparkleCore)"
        stroke="#f4ebe0"
        stroke-width="1.1"
        stroke-linejoin="round"
        filter="url(#petalShadow)"/>
  <circle cx="14" cy="14" r="1.4" fill="#fff5ec" opacity="0.9"/>
  <circle cx="22.5" cy="6" r="1" fill="#f43f5e" opacity="0.7"/>
  <circle cx="5.5" cy="22" r="0.7" fill="#a64458" opacity="0.6"/>
</svg>
